<?xml version="1.0" standalone="no"?>
<!DOCTYPE svg PUBLIC "-//W3C//DTD SVG 20010904//EN"
 "http://www.w3.org/TR/2001/REC-SVG-20010904/DTD/svg10.dtd">
<svg version="1.0" xmlns="http://www.w3.org/2000/svg"
 width="500.000000pt" height="500.000000pt" viewBox="0 0 500.000000 500.000000"
 preserveAspectRatio="xMidYMid meet">

<g transform="translate(0.000000,500.000000) scale(0.100000,-0.100000)"
fill="#000000" stroke="none">
<path d="M2800 3539 c-92 -16 -211 -56 -280 -96 -38 -22 -105 -78 -161 -133
-84 -84 -101 -108 -147 -200 -28 -58 -58 -131 -66 -163 -20 -78 -30 -238 -19
-313 5 -34 6 -72 1 -84 -6 -16 -5 -26 4 -32 10 -7 9 -8 -2 -5 -9 2 -14 14 -13
28 3 22 2 23 -11 7 -12 -17 -14 -17 -30 1 -26 29 -68 32 -130 11 -61 -22 -91
-26 -66 -10 12 8 13 10 1 10 -8 0 -23 7 -33 17 -17 15 -18 14 -24 -15 l-6 -31
-19 22 c-10 12 -18 18 -19 14 0 -4 -9 -3 -20 3 -16 8 -20 8 -20 -4 0 -8 -9
-18 -21 -21 -18 -6 -20 -12 -14 -46 l7 -39 -74 -35 c-72 -34 -81 -46 -19 -24
35 12 53 4 57 -27 1 -9 -1 -13 -4 -9 -4 4 -7 12 -7 18 0 7 -9 13 -20 15 -16 3
-17 1 -5 -7 13 -10 13 -11 0 -11 -12 0 -12 -2 -1 -9 7 -5 9 -11 5 -14 -5 -3
-14 1 -21 8 -10 11 -10 15 0 18 9 4 9 6 0 6 -6 1 -14 -3 -18 -9 -3 -5 -12 -7
-19 -4 -7 3 -19 -3 -27 -13 -12 -16 -12 -17 1 -7 20 15 48 14 54 -2 3 -8 -2
-11 -16 -9 -11 3 -28 0 -37 -5 -11 -6 -12 -9 -3 -10 7 0 10 -5 7 -10 -6 -10
84 21 119 41 10 6 27 12 37 14 11 2 76 29 146 59 69 31 135 56 145 56 22 0 38
-37 35 -78 -1 -21 -6 -28 -16 -24 -10 4 -12 1 -6 -8 5 -8 4 -11 -2 -7 -9 6
-151 -47 -195 -73 -10 -6 -23 -10 -30 -10 -21 -1 -64 -39 -53 -47 6 -5 11 -16
11 -26 2 -18 1 -18 -19 0 l-21 18 17 -27 c13 -21 15 -33 7 -54 -9 -23 -8 -25
6 -20 14 5 15 4 4 -9 -8 -9 -8 -15 -2 -15 9 0 9 -37 0 -45 -2 -2 -34 -15 -73
-30 -38 -15 -94 -38 -123 -51 -29 -13 -58 -24 -65 -24 -31 0 -46 -44 -31 -84
8 -21 16 -20 72 5 55 25 191 82 362 150 69 28 160 66 203 86 90 40 110 35 105
-26 -3 -35 -5 -36 -113 -85 -126 -56 -153 -68 -215 -92 -25 -9 -49 -21 -55
-26 -5 -4 -16 -8 -25 -8 -9 0 -21 -5 -28 -12 -6 -6 -17 -13 -24 -14 -26 -4
-254 -96 -394 -159 -55 -25 -79 -55 -42 -55 18 0 19 2 7 18 -11 14 -11 15 0 5
7 -6 19 -9 26 -7 7 3 16 0 21 -7 4 -8 3 -10 -4 -5 -7 4 -21 1 -32 -7 -18 -13
-19 -15 -5 -21 9 -3 13 -10 10 -16 -9 -14 1 -12 38 7 18 9 34 18 37 18 14 2
125 48 193 79 42 20 81 36 86 36 16 0 45 -81 35 -97 -5 -9 -64 -38 -129 -64
-66 -27 -129 -53 -140 -58 -57 -25 -96 -42 -160 -67 -89 -35 -107 -50 -103
-88 3 -28 6 -31 38 -30 19 1 60 13 90 27 30 14 100 43 155 65 55 23 172 71
260 107 88 37 275 114 415 171 283 115 265 108 374 159 44 20 87 34 95 31 55
-17 92 -34 94 -42 4 -18 -204 -111 -633 -281 -127 -50 -148 -59 -233 -97 -32
-14 -61 -26 -65 -26 -14 0 -140 -56 -156 -69 -22 -18 -20 -58 3 -71 15 -8 34
-5 78 11 32 12 62 25 68 30 5 5 15 9 22 9 7 0 41 13 75 29 35 16 83 36 108 44
25 9 95 37 155 62 61 26 211 87 335 137 124 50 249 101 278 114 29 13 56 24
61 24 4 0 21 7 37 15 41 20 284 92 353 104 81 15 224 91 308 164 324 279 415
745 221 1131 -28 56 -92 158 -113 182 -5 6 -34 39 -64 73 -30 33 -61 61 -68
61 -7 0 -13 5 -13 10 0 6 -3 9 -7 9 -20 -3 -34 2 -28 10 3 5 1 12 -3 15 -5 3
-9 -4 -8 -15 0 -11 8 -24 16 -29 8 -5 10 -10 4 -10 -5 0 -16 6 -22 12 -10 10
-15 10 -23 -2 -10 -13 -10 -13 -6 0 4 13 -10 15 -92 13 -53 -2 -102 -5 -108
-8 -7 -2 -13 -1 -13 3 0 4 -8 8 -17 9 -10 1 -51 9 -91 17 -80 17 -175 19 -262
5z m302 -186 c43 -31 78 -60 78 -66 0 -5 -14 -27 -31 -48 l-30 -38 -78 0 c-43
0 -93 -2 -112 -6 -30 -6 -46 0 -120 45 -46 29 -85 53 -87 55 -7 7 22 51 51 78
16 15 41 30 56 33 14 3 31 8 36 10 6 2 44 1 85 -2 71 -5 78 -8 152 -61z m-433
2 c-15 -25 -41 -45 -93 -71 -39 -20 -75 -40 -80 -45 -17 -16 -26 -10 -26 16 0
19 13 33 57 61 60 38 129 72 150 73 8 1 5 -12 -8 -34z m63 -136 c29 -17 66
-40 81 -52 32 -22 32 -27 3 -130 -9 -32 -16 -66 -16 -77 0 -10 -8 -21 -19 -25
-10 -3 -55 -30 -101 -60 -46 -30 -87 -55 -92 -55 -11 0 -144 86 -152 98 -6 10
16 142 34 204 9 33 19 41 102 82 51 25 96 46 100 46 4 0 31 -14 60 -31z m625
-20 c46 -29 87 -91 112 -173 29 -95 28 -136 -7 -169 l-28 -27 -35 26 c-18 14
-63 41 -99 60 -65 36 -65 36 -95 116 -17 45 -34 92 -39 105 -9 20 -4 29 33 67
l43 44 41 -14 c22 -8 55 -23 74 -35z m-948 -23 c9 -11 7 -32 -9 -92 -11 -43
-20 -99 -20 -125 0 -38 -8 -58 -45 -113 -25 -37 -45 -72 -45 -77 0 -21 -41 -8
-52 17 -9 20 -8 44 6 116 18 94 44 158 99 240 34 50 47 57 66 34z m642 -64
c-19 -35 -142 -132 -166 -132 -14 0 8 113 26 134 8 10 117 24 136 18 9 -3 10
-9 4 -20z m255 -273 c122 -74 117 -66 109 -178 -6 -92 -8 -97 -38 -124 -18
-15 -62 -46 -98 -68 l-67 -40 -53 32 c-93 54 -89 45 -89 195 0 118 2 133 18
138 9 3 42 26 72 51 30 24 56 44 58 45 2 0 41 -23 88 -51z m-404 1 c117 -73
106 -53 104 -192 l-1 -122 -41 -26 c-23 -14 -66 -34 -96 -45 l-55 -18 -68 37
c-37 21 -83 49 -102 63 l-33 25 0 99 c0 96 1 98 28 118 56 39 167 101 184 101
10 0 46 -18 80 -40z m-412 -40 c21 -17 23 -21 10 -30 -9 -6 -37 -8 -66 -5 -40
5 -55 2 -68 -10 -24 -25 -19 -6 15 53 l30 53 27 -20 c15 -11 38 -30 52 -41z
m1243 10 c6 -23 5 -71 -2 -140 -22 -194 -119 -390 -256 -519 -71 -66 -153
-129 -202 -155 -31 -15 -33 -15 -43 5 -15 26 -4 39 63 78 106 60 193 146 273
267 63 96 88 177 104 344 6 63 14 125 16 138 7 35 36 23 47 -18z m-1439 -171
c10 -28 34 -72 52 -99 27 -39 34 -59 34 -97 0 -27 5 -63 10 -81 6 -17 14 -45
19 -62 5 -16 6 -30 3 -30 -10 0 -86 99 -106 137 -31 61 -68 175 -73 229 -6 52
-5 54 19 54 20 0 27 -9 42 -51z m-439 -78 c3 -5 1 -12 -5 -16 -5 -3 -10 1 -10
9 0 18 6 21 15 7z m789 -96 c37 -24 82 -52 100 -60 35 -17 41 -27 70 -125 16
-54 16 -55 -5 -72 -12 -10 -43 -24 -71 -33 -43 -12 -57 -12 -102 -1 -59 16
-127 48 -143 68 -15 18 -40 112 -46 174 l-6 51 42 13 c23 7 51 16 62 20 30 13
27 13 99 -35z m806 20 c51 -61 -142 -306 -240 -305 -27 1 -60 21 -60 38 0 6
18 43 40 84 36 67 44 75 98 101 32 15 77 43 98 62 45 39 47 40 64 20z m-1715
-5 c3 -5 1 -10 -4 -10 -6 0 -11 5 -11 10 0 6 2 10 4 10 3 0 8 -4 11 -10z m-5
-24 c0 -2 -8 -10 -17 -17 -16 -13 -17 -12 -4 4 13 16 21 21 21 13z m-26 -46
c-21 -8 -37 -3 -29 10 3 4 15 6 27 2 21 -5 21 -6 2 -12z m252 -185 c7 -19 14
-39 14 -45 0 -14 -118 -70 -147 -70 -27 0 -22 19 8 38 12 8 18 9 14 3 -3 -6
-1 -11 6 -11 8 0 10 12 6 38 -6 35 -4 38 31 58 50 29 51 29 68 -11z m1160 -86
l26 -26 -68 -22 c-45 -14 -94 -21 -147 -21 -88 0 -207 17 -207 30 0 5 30 18
68 29 37 12 72 25 79 29 6 4 59 7 117 7 101 0 107 -2 132 -26z m-1056 -249
c13 -13 20 -33 20 -60 0 -79 -74 -107 -131 -51 -35 36 -37 69 -4 105 30 33 85
36 115 6z"/>
<path d="M2085 3450 c-22 -11 -93 -44 -158 -74 -113 -53 -118 -57 -115 -83 4
-39 28 -36 173 26 127 55 163 81 167 121 4 31 -16 34 -67 10z"/>
<path d="M3873 3358 c-6 -7 -10 -24 -9 -38 1 -21 6 -25 30 -25 36 0 56 27 40
53 -14 21 -47 27 -61 10z"/>
<path d="M1650 3258 c-49 -25 -63 -54 -35 -74 15 -11 26 -9 66 12 27 13 49 26
49 29 0 10 -24 55 -29 55 -4 0 -27 -10 -51 -22z"/>
<path d="M2020 3219 c-30 -15 -61 -28 -68 -29 -19 0 -43 -26 -34 -36 4 -5 0
-3 -8 3 -20 15 -39 3 -38 -22 0 -11 -3 -28 -7 -37 -9 -21 2 -23 44 -5 17 7 28
17 24 21 -4 4 0 4 10 0 10 -3 17 -1 17 6 0 6 4 9 9 6 5 -4 22 -1 38 6 15 6 31
11 35 10 4 -1 11 10 14 26 4 15 13 39 21 55 16 33 13 32 -57 -4z"/>
<path d="M1411 3176 c-19 -23 -10 -68 16 -77 30 -11 65 25 61 61 -2 20 -9 26
-34 28 -18 2 -36 -3 -43 -12z"/>
<path d="M1838 3143 c7 -3 16 -2 19 1 4 3 -2 6 -13 5 -11 0 -14 -3 -6 -6z"/>
<path d="M1834 3114 c-18 -14 -18 -15 4 -4 12 6 22 13 22 15 0 8 -5 6 -26 -11z"/>
<path d="M1805 3060 c-3 -6 1 -7 9 -4 18 7 21 14 7 14 -6 0 -13 -4 -16 -10z"/>
<path d="M1985 3002 c-6 -5 -26 -15 -45 -22 -101 -37 -249 -104 -245 -110 3
-5 -5 -6 -17 -2 -15 4 -19 2 -13 -8 5 -8 3 -11 -6 -8 -7 2 -28 -11 -46 -29
-19 -18 -38 -33 -42 -33 -5 0 -12 -7 -15 -16 -5 -14 -9 -14 -24 -3 -15 13 -16
12 -3 -4 9 -12 17 -14 26 -7 7 6 15 6 22 -1 8 -8 64 11 196 65 102 42 190 76
196 76 6 0 11 16 11 36 0 19 5 44 10 55 11 20 10 24 -5 11z m-388 -228 c-3 -3
-12 -4 -19 -1 -8 3 -5 6 6 6 11 1 17 -2 13 -5z"/>
<path d="M1573 2815 c0 -8 4 -12 9 -9 4 3 8 9 8 15 0 5 -4 9 -8 9 -5 0 -9 -7
-9 -15z"/>
<path d="M1860 2596 c0 -14 39 -30 49 -20 3 3 -5 7 -18 11 -17 4 -19 8 -9 14
10 7 9 9 -4 9 -10 0 -18 -6 -18 -14z"/>
<path d="M1155 2210 c4 -6 11 -8 16 -5 14 9 11 15 -7 15 -8 0 -12 -5 -9 -10z"/>
<path d="M1045 2180 c-3 -5 -1 -10 4 -10 6 0 11 5 11 10 0 6 -2 10 -4 10 -3 0
-8 -4 -11 -10z"/>
<path d="M1725 2180 c3 -5 8 -10 11 -10 2 0 4 5 4 10 0 6 -5 10 -11 10 -5 0
-7 -4 -4 -10z"/>
<path d="M973 2158 c-29 -14 -38 -38 -12 -31 10 3 16 9 13 14 -3 5 2 10 10 10
28 2 34 4 40 9 9 10 -28 8 -51 -2z"/>
<path d="M1319 2013 c-12 -16 -12 -17 2 -6 9 7 20 9 24 5 5 -4 5 -1 1 6 -9 16
-11 15 -27 -5z"/>
<path d="M3580 1980 c-31 -31 -27 -83 11 -114 39 -33 73 -33 104 0 35 38 29
88 -14 121 -25 19 -78 16 -101 -7z"/>
<path d="M1235 1857 c-54 -22 -84 -41 -92 -57 -26 -52 12 -69 88 -40 113 45
117 47 115 88 -1 24 -6 38 -16 39 -8 1 -51 -12 -95 -30z"/>
<path d="M3350 1874 c-192 -66 -432 -159 -770 -301 -128 -53 -141 -59 -190
-80 -25 -11 -150 -62 -279 -114 -256 -103 -284 -121 -243 -162 l21 -21 93 39
c51 21 152 62 223 92 72 29 139 57 150 63 80 38 642 269 805 330 47 18 94 36
105 40 11 5 53 21 93 36 40 15 75 31 78 35 2 5 2 20 -2 34 -7 29 -21 30 -84 9z"/>
<path d="M3045 1583 c-143 -59 -185 -82 -185 -103 0 -11 6 -23 13 -25 6 -3 66
17 132 44 92 37 121 52 123 68 6 37 -19 42 -83 16z"/>
<path d="M2673 1429 c-53 -24 -74 -57 -49 -75 14 -10 27 -8 68 9 56 23 65 36
48 66 -13 25 -13 25 -67 0z"/>
</g>
</svg>
